<svg width="97" height="47" viewBox="0 0 97 47" fill="none" xmlns="http://www.w3.org/2000/svg">
<path d="M19.1443 12.7881C19.5782 12.7881 19.7952 12.7881 19.9609 12.8725C20.1067 12.9468 20.2252 13.0653 20.2995 13.2111C20.384 13.3769 20.384 13.5938 20.384 14.0277V32.973C20.384 33.4069 20.384 33.6239 20.2995 33.7896C20.2252 33.9354 20.1067 34.054 19.9609 34.1282C19.7952 34.2127 19.5782 34.2127 19.1443 34.2127H15.9779C15.7637 34.2127 15.6566 34.2127 15.5574 34.1859C15.4695 34.1622 15.3865 34.1231 15.3122 34.0706C15.2283 34.0113 15.1599 33.9288 15.0233 33.7639L6.59596 23.5911C6.39334 23.3465 6.29202 23.2242 6.20347 23.2113C6.1268 23.2002 6.04962 23.228 5.99767 23.2855C5.93767 23.3519 5.93767 23.5107 5.93767 23.8283V32.973C5.93767 33.4069 5.93767 33.6239 5.85323 33.7896C5.77894 33.9354 5.66042 34.054 5.51463 34.1282C5.34889 34.2127 5.13193 34.2127 4.69801 34.2127H1.23966C0.805741 34.2127 0.588779 34.2127 0.423043 34.1282C0.277256 34.054 0.158729 33.9354 0.084447 33.7896C0 33.6239 0 33.4069 0 32.973V14.0277C0 13.5938 0 13.3769 0.084447 13.2111C0.158729 13.0653 0.277256 12.9468 0.423043 12.8725C0.588779 12.7881 0.805741 12.7881 1.23966 12.7881H4.40604C4.62025 12.7881 4.72735 12.7881 4.82655 12.8149C4.91444 12.8386 4.99746 12.8776 5.0718 12.9302C5.15571 12.9895 5.22403 13.072 5.36068 13.2369L13.788 23.4097C13.9906 23.6543 14.0919 23.7766 14.1805 23.7894C14.2572 23.8006 14.3343 23.7727 14.3863 23.7153C14.4463 23.6489 14.4463 23.4901 14.4463 23.1724V14.0277C14.4463 13.5938 14.4463 13.3769 14.5307 13.2111C14.605 13.0653 14.7236 12.9468 14.8693 12.8725C15.0351 12.7881 15.252 12.7881 15.686 12.7881H19.1443Z" fill="black"/>
<path d="M30.7606 17.4709C30.6304 17.4709 30.5653 17.4709 30.5156 17.4962C30.4719 17.5185 30.4363 17.5541 30.414 17.5978C30.3887 17.6475 30.3887 17.7126 30.3887 17.8428V21.8124C30.3887 21.9426 30.3887 22.0077 30.414 22.0574C30.4363 22.1011 30.4719 22.1367 30.5156 22.159C30.5653 22.1843 30.6304 22.1843 30.7606 22.1843H38.6064C39.0404 22.1843 39.2573 22.1843 39.4231 22.2687C39.5689 22.343 39.6874 22.4616 39.7617 22.6073C39.8461 22.7731 39.8461 22.99 39.8461 23.424V25.6274C39.8461 26.0614 39.8461 26.2783 39.7617 26.4441C39.6874 26.5899 39.5689 26.7084 39.4231 26.7827C39.2573 26.8671 39.0404 26.8671 38.6064 26.8671H30.7606C30.6304 26.8671 30.5653 26.8671 30.5156 26.8924C30.4719 26.9147 30.4363 26.9503 30.414 26.994C30.3887 27.0437 30.3887 27.1088 30.3887 27.239V32.973C30.3887 33.4069 30.3887 33.6239 30.3042 33.7896C30.23 33.9354 30.1114 34.054 29.9656 34.1282C29.7999 34.2127 29.5829 34.2127 29.149 34.2127H25.5682C25.1343 34.2127 24.9174 34.2127 24.7516 34.1282C24.6058 34.054 24.4873 33.9354 24.413 33.7896C24.3286 33.6239 24.3286 33.4069 24.3286 32.973V14.0277C24.3286 13.5938 24.3286 13.3769 24.413 13.2111C24.4873 13.0653 24.6058 12.9468 24.7516 12.8725C24.9174 12.7881 25.1343 12.7881 25.5682 12.7881H39.8919C40.3258 12.7881 40.5428 12.7881 40.7085 12.8725C40.8543 12.9468 40.9729 13.0653 41.0471 13.2111C41.1316 13.3769 41.1316 13.5938 41.1316 14.0277V16.2312C41.1316 16.6652 41.1316 16.8821 41.0471 17.0478C40.9729 17.1936 40.8543 17.3122 40.7085 17.3864C40.5428 17.4709 40.3258 17.4709 39.8919 17.4709H30.7606Z" fill="black"/>
<path fill-rule="evenodd" clip-rule="evenodd" d="M60.794 2.31792C61.4322 2.24987 61.8944 1.67731 61.8264 1.03907C61.7583 0.400831 61.1858 -0.0614014 60.5475 0.00664574L58.174 0.259701C56.958 0.389343 55.9827 0.493321 55.1906 0.636932C54.3746 0.784877 53.6752 0.987111 53.0257 1.35112C51.9712 1.94212 51.0969 2.80816 50.4964 3.85694C50.1264 4.50302 49.9181 5.20023 49.7633 6.01429C49.613 6.80439 49.5009 7.77779 49.3612 8.99116L49.3552 9.04343L49.1221 11.3612C49.0579 11.9998 49.5236 12.5696 50.1622 12.6338C50.8008 12.698 51.3706 12.2324 51.4348 11.5937L51.6662 9.29268C51.8117 8.02973 51.9146 7.14353 52.0467 6.44862C52.1765 5.76661 52.3213 5.34762 52.5135 5.0119C52.9047 4.32864 53.4745 3.76413 54.1621 3.37878C54.5001 3.18934 54.9211 3.04805 55.6052 2.92402C56.3037 2.79737 57.1944 2.70169 58.4643 2.56629L60.794 2.31792ZM83.407 1.03907C83.339 1.67731 83.8012 2.24987 84.4394 2.31792L86.7691 2.56629C88.039 2.70169 88.9297 2.79737 89.6282 2.92402C90.3123 3.04805 90.7333 3.18934 91.0713 3.37878C91.7589 3.76413 92.3287 4.32864 92.7199 5.0119C92.9121 5.34762 93.0569 5.76661 93.1867 6.44862C93.3188 7.14353 93.4217 8.02973 93.5672 9.29268L93.7986 11.5937C93.8628 12.2324 94.4326 12.698 95.0712 12.6338C95.7098 12.5696 96.1755 11.9998 96.1113 11.3612L95.8782 9.04343L95.8722 8.99116L95.8722 8.99101C95.7325 7.77771 95.6204 6.80436 95.4701 6.01429C95.3153 5.20023 95.107 4.50302 94.737 3.85694C94.1365 2.80816 93.2623 1.94212 92.2077 1.35112C91.5582 0.987111 90.8588 0.784877 90.0428 0.636932C89.2507 0.493321 88.2754 0.389343 87.0594 0.259701L84.6859 0.00664574C84.0476 -0.0614014 83.4751 0.400831 83.407 1.03907ZM83.407 45.9609C83.339 45.3227 83.8012 44.7501 84.4394 44.6821L86.7691 44.4337C88.039 44.2983 88.9297 44.2026 89.6282 44.076C90.3123 43.952 90.7333 43.8107 91.0713 43.6212C91.7589 43.2359 92.3287 42.6714 92.7199 41.9881C92.9121 41.6524 93.0569 41.2334 93.1867 40.5514C93.3188 39.8565 93.4217 38.9703 93.5672 37.7073L93.7986 35.4063C93.8628 34.7676 94.4326 34.302 95.0712 34.3662C95.7098 34.4304 96.1755 35.0002 96.1113 35.6388L95.8782 37.9566L95.8722 38.0088L95.8722 38.009C95.7325 39.2223 95.6204 40.1956 95.4701 40.9857C95.3153 41.7998 95.107 42.497 94.737 43.1431C94.1365 44.1918 93.2623 45.0579 92.2077 45.6489C91.5582 46.0129 90.8588 46.2151 90.0428 46.3631C89.2509 46.5067 88.2758 46.6106 87.0601 46.7402L87.0597 46.7403L87.0595 46.7403L87.0594 46.7403L84.6859 46.9934C84.0476 47.0614 83.4751 46.5992 83.407 45.9609ZM61.8264 45.9609C61.8944 45.3227 61.4322 44.7501 60.794 44.6821L58.4643 44.4337C57.1944 44.2983 56.3037 44.2026 55.6052 44.076C54.9211 43.952 54.5001 43.8107 54.1621 43.6212C53.4745 43.2359 52.9047 42.6714 52.5135 41.9881C52.3213 41.6524 52.1765 41.2334 52.0467 40.5514C51.9146 39.8565 51.8117 38.9703 51.6662 37.7073L51.4348 35.4063C51.3706 34.7676 50.8008 34.302 50.1622 34.3662C49.5236 34.4304 49.0579 35.0002 49.1221 35.6388L49.3552 37.9566L49.3612 38.0088C49.5009 39.2222 49.613 40.1956 49.7633 40.9857C49.9181 41.7998 50.1264 42.497 50.4964 43.1431C51.0969 44.1918 51.9712 45.0579 53.0257 45.6489C53.6752 46.0129 54.3746 46.2151 55.1906 46.3631C55.9826 46.5067 56.9578 46.6106 58.1737 46.7403L58.1739 46.7403L58.174 46.7403L60.5475 46.9934C61.1858 47.0614 61.7583 46.5992 61.8264 45.9609ZM61.1914 14.5391C60.6391 14.5391 60.1914 14.9868 60.1914 15.5391V31.8033C60.1914 32.3556 60.6391 32.8033 61.1914 32.8033H64.3576C64.9099 32.8033 65.3576 32.3556 65.3576 31.8033V15.5391C65.3576 14.9868 64.9099 14.5391 64.3576 14.5391H61.1914ZM69.7517 14.5391C69.1994 14.5391 68.7517 14.9868 68.7517 15.5391V31.8033C68.7517 32.3556 69.1994 32.8033 69.7517 32.8033H77.3881C79.3884 32.8033 81.1627 32.4293 82.7108 31.6813C84.2589 30.9334 85.4591 29.8723 86.3114 28.4981C87.1638 27.124 87.5899 25.515 87.5899 23.6712C87.5899 21.8274 87.1638 20.2184 86.3114 18.8442C85.4591 17.47 84.2589 16.409 82.7108 15.661C81.1627 14.913 79.3884 14.5391 77.3881 14.5391H69.7517ZM80.9365 27.3501C79.9972 28.2372 78.7448 28.6808 77.1793 28.6808H74.2179C74.0522 28.6808 73.9179 28.5465 73.9179 28.3808V18.9616C73.9179 18.7959 74.0522 18.6616 74.2179 18.6616H77.1793C78.7448 18.6616 79.9972 19.1051 80.9365 19.9922C81.8932 20.8794 82.3716 22.1057 82.3716 23.6712C82.3716 25.2367 81.8932 26.463 80.9365 27.3501Z" fill="url(#paint0_linear_2822_11977)"/>
<defs>
<linearGradient id="paint0_linear_2822_11977" x1="60.4146" y1="15.6413" x2="76.548" y2="39.0914" gradientUnits="userSpaceOnUse">
<stop stop-color="#CC5CDC"/>
<stop offset="0.244792" stop-color="#7B66FF"/>
<stop offset="0.520833" stop-color="#1F8AF0"/>
<stop offset="0.760417" stop-color="#00D1FF"/>
<stop offset="1" stop-color="#3DEDD7"/>
</linearGradient>
</defs>
</svg>
